<?xml version="1.0" encoding="utf-8"?>
<!-- Generator: Adobe Illustrator 17.1.0, SVG Export Plug-In . SVG Version: 6.00 Build 0)  -->
<!DOCTYPE svg PUBLIC "-//W3C//DTD SVG 1.1//EN" "http://www.w3.org/Graphics/SVG/1.1/DTD/svg11.dtd">
<svg version="1.1" id="Layer_1" xmlns="http://www.w3.org/2000/svg" xmlns:xlink="http://www.w3.org/1999/xlink" x="0px" y="0px"
	 viewBox="0 0 50 50" enable-background="new 0 0 50 50" xml:space="preserve">
<g>
	<path fill="#FFFFFF" d="M45,20.7L20.7,45c1.4,0.3,2.8,0.5,4.3,0.5c1.4,0,2.9-0.2,4.2-0.4L45,29.2c0.3-1.4,0.4-2.8,0.4-4.2
		C45.4,23.5,45.3,22.1,45,20.7z"/>
	<path fill="#FFFFFF" d="M37.1,8.6L8.6,37.1c1.2,1.6,2.6,3,4.2,4.2l28.5-28.5C40.2,11.2,38.8,9.8,37.1,8.6z"/>
	<path fill="#FFFFFF" d="M25,4.6c-1.4,0-2.9,0.2-4.2,0.4L5,20.8c-0.3,1.4-0.4,2.8-0.4,4.2c0,1.5,0.2,2.9,0.5,4.3L29.3,5
		C27.9,4.7,26.5,4.6,25,4.6z"/>
</g>
</svg>